<svg xmlns="http://www.w3.org/2000/svg" xmlns:xlink="http://www.w3.org/1999/xlink" width="20" height="20" viewBox="0 0 20 20">
  <defs>
    <clipPath id="clip-path">
      <rect id="Rectangle_51153" data-name="Rectangle 51153" width="20" height="20" transform="translate(151.538 324.537)" fill="#ced3dd" stroke="#ced3dd" stroke-width="0.25"/>
    </clipPath>
  </defs>
  <g id="Sq_ft_icvon" data-name="Sq ft icvon" transform="translate(-151.538 -324.537)" clip-path="url(#clip-path)">
    <g id="SQ_FT" data-name="SQ FT" transform="translate(153.538 327.537)">
      <path id="icons8-storey" d="M5.608,6.978A.617.617,0,0,0,5,7.6V19.95a1.038,1.038,0,0,0,1.029,1.029h6.584a1.038,1.038,0,0,0,1.029-1.029V18.3a1.038,1.038,0,0,0-1.029-1.029h-1.44V16.246a1.038,1.038,0,0,0-1.029-1.029H8.7V14.189A1.038,1.038,0,0,0,7.675,13.16H6.234V7.6a.617.617,0,0,0-.627-.626Zm2.479.009A.617.617,0,1,0,8.7,7.6.617.617,0,0,0,8.086,6.987Zm2.469,0a.617.617,0,1,0,.617.617A.617.617,0,0,0,10.555,6.987Zm2.469,0a.617.617,0,1,0,.617.617A.617.617,0,0,0,13.024,6.987Zm2.469,0a.617.617,0,1,0,.617.617A.617.617,0,0,0,15.493,6.987Zm2.881,0a1.038,1.038,0,0,0-1.029,1.029V9.045H15.9a1.038,1.038,0,0,0-1.029,1.029V11.1h-1.44a1.038,1.038,0,0,0-1.029,1.029v1.646a1.038,1.038,0,0,0,1.029,1.029h6.378v5.555a.617.617,0,1,0,1.235,0V14.189A.617.617,0,0,0,21.022,14a1,1,0,0,0,.027-.223V8.016A1.038,1.038,0,0,0,20.02,6.987Zm.206,1.234h1.234v5.35H13.641V12.337h1.852a.617.617,0,0,0,.617-.617v-1.44h1.852a.617.617,0,0,0,.617-.617ZM6.234,14.394H7.469v1.44a.617.617,0,0,0,.617.617H9.938v1.44a.617.617,0,0,0,.617.617h1.852v1.234H6.234Zm9.259,5.349a.617.617,0,1,0,.617.617A.617.617,0,0,0,15.493,19.744Zm2.469,0a.617.617,0,1,0,.617.617A.617.617,0,0,0,17.962,19.744Z" transform="translate(-5 -6.978)" fill="#ced3dd" stroke="#ced3dd" stroke-width="0.25"/>
    </g>
  </g>
</svg>
